<?xml version="1.0" encoding="UTF-8"?>
<svg width="171px" height="56px" viewBox="0 0 171 56" version="1.1" xmlns="http://www.w3.org/2000/svg" xmlns:xlink="http://www.w3.org/1999/xlink">
    <!-- Generator: Sketch 51.2 (57519) - http://www.bohemiancoding.com/sketch -->
    <title>logo</title>
    <desc>Created with Sketch.</desc>
    <defs>
        <linearGradient x1="-0.0480519481%" y1="50.0019481%" x2="100.027922%" y2="50.0019481%" id="linearGradient-1">
            <stop stop-color="#D89141" offset="0%"/>
            <stop stop-color="#FBB034" offset="10%"/>
            <stop stop-color="#FFC233" offset="30%"/>
            <stop stop-color="#FFDD2F" offset="48.93%"/>
            <stop stop-color="#FFF32A" offset="65%"/>
            <stop stop-color="#FFE42F" offset="73.7%"/>
            <stop stop-color="#F2C837" offset="88.71%"/>
            <stop stop-color="#E6B13B" offset="100%"/>
        </linearGradient>
        <path d="M28,0 C43.4545455,0 56,12.5454545 56,28 C56,43.4545455 43.4545455,56 28,56 C12.5454545,56 0,43.4545455 0,28 C8.61263922e-15,12.5454545 12.5454545,0 28,0 Z" id="path-2"/>
        <radialGradient cx="50.0180828%" cy="49.9549127%" fx="50.0180828%" fy="49.9549127%" r="50.0635371%" gradientTransform="translate(0.500181,0.499549),scale(0.997821,1.000000),translate(-0.500181,-0.499549)" id="radialGradient-4">
            <stop stop-color="#FFFFFF" stop-opacity="0.7" offset="0%"/>
            <stop stop-color="#FFFFFF" stop-opacity="0" offset="100%"/>
        </radialGradient>
    </defs>
    <g id="LogIn" stroke="none" stroke-width="1" fill="none" fill-rule="evenodd">
        <g id="LogIn---error" transform="translate(-427.000000, -135.000000)">
            <g id="logo" transform="translate(427.000000, 135.000000)">
                <g id="Group" transform="translate(68.444444, 17.111111)" fill="#1D1D1B" fill-rule="nonzero">
                    <path d="M91.4548645,6.40531613 C91.1459613,6.40531613 90.8814968,6.67700645 90.8814968,6.98229677 L90.8814968,12.4489806 L83.9898839,12.4489806 L83.9898839,6.98229677 C83.9898839,6.67700645 83.7181935,6.40531613 83.4114581,6.40531613 L81.5244387,6.40531613 C81.2205935,6.40531613 80.9832258,6.67700645 80.9832258,6.98229677 L80.9832258,21.0260129 C80.9832258,21.3381677 81.2205935,21.6069677 81.5244387,21.6069677 L83.4114581,21.6069677 C83.7181935,21.6069677 83.9898839,21.3381677 83.9898839,21.0260129 L83.9898839,15.1886452 L90.8814968,15.1886452 L90.8814968,21.0260129 C90.8814968,21.3381677 91.1456,21.6069677 91.4548645,21.6069677 L93.3480258,21.6069677 C93.6085161,21.6069677 93.8780387,21.3381677 93.8780387,21.0260129 L93.8780387,6.98229677 C93.8780387,6.67700645 93.6085161,6.40531613 93.3480258,6.40531613 L91.4548645,6.40531613 Z M76.8327226,0.1344 C77.1788387,0.1344 77.445471,0.403922581 77.445471,0.70523871 L77.445471,2.44412903 C77.445471,2.75194839 77.1788387,3.02255484 76.8327226,3.02255484 L65.0962065,3.02255484 C64.7873032,3.02255484 64.5228387,2.75194839 64.5228387,2.44412903 L64.5228387,0.70523871 C64.5228387,0.403922581 64.7873032,0.1344 65.0962065,0.1344 L76.8327226,0.1344 Z M0.774967742,0.1344 C0.475096774,0.1344 0.2016,0.403922581 0.2016,0.70523871 L0.2016,15.1882839 C0.2016,19.0699871 1.43107097,21.6477935 6.28247742,21.6477935 L6.85981935,21.6477935 C13.7832258,21.6477935 14.8251871,17.0698839 14.8251871,14.7207742 C14.8251871,12.6397419 14.0552774,7.71101935 7.16908387,7.71101935 L3.31736774,7.71101935 L3.31736774,3.02255484 L12.2065548,3.02255484 C12.5169032,3.02255484 12.7875097,2.75194839 12.7875097,2.44412903 L12.7875097,0.70523871 C12.7875097,0.403922581 12.5169032,0.1344 12.2065548,0.1344 L0.774967742,0.1344 Z M7.27927742,10.5626839 C10.0933677,10.5626839 11.6685935,12.0974452 11.6685935,14.7207742 C11.6685935,17.3376 10.0933677,18.7650581 7.27927742,18.7650581 L6.28211613,18.7650581 C4.16929032,18.7650581 3.31664516,17.8788129 3.31664516,15.4888774 L3.31664516,10.5626839 L7.27927742,10.5626839 Z M50.9415742,6.67700645 C50.7475613,6.75612903 50.592929,6.98229677 50.592929,7.17486452 L50.592929,8.91194839 C50.592929,9.0608 50.7078194,9.25914839 50.8187355,9.33140645 C50.9809548,9.41052903 51.1326968,9.44557419 51.2833548,9.41052903 C52.3213419,9.0608 53.5190194,8.71468387 55.476129,8.71468387 C57.8993032,8.71468387 58.3292387,9.44557419 58.3292387,11.1736258 L58.3292387,11.4890323 L54.9808,11.7213419 C49.5878194,12.0974452 49.3211871,15.6044903 49.3211871,16.6825806 C49.3211871,19.8749419 51.0156387,21.8349419 55.0584774,21.8349419 C56.3276903,21.8349419 57.7511742,21.4548645 58.9795613,20.6806194 L59.2516129,21.2608516 C59.3253161,21.4548645 59.519329,21.6069677 59.7469419,21.6069677 L60.8701935,21.6069677 C61.1408,21.6069677 61.4063484,21.3753806 61.4063484,21.0715355 L61.4063484,11.2151742 C61.4063484,7.60154839 59.4824774,5.86663226 55.476129,5.86663226 C53.7845677,5.86627097 52.1327484,6.17842581 50.9415742,6.67700645 Z M52.5146323,16.6825806 C52.5146323,15.6044903 52.7111742,14.4848516 54.9363613,14.2966194 L58.2848,13.986271 L58.3296,18.0222452 C57.2522323,18.679071 56.4017548,19.0269935 55.0946065,19.0269935 C53.8178065,19.0269935 52.5146323,18.5291355 52.5146323,16.6825806 Z M27.6701419,21.2608516 C27.7427613,21.4548645 27.9331613,21.6069677 28.1604129,21.6069677 L29.5148903,21.6069677 C29.7829677,21.6069677 30.0488774,21.3753806 30.0488774,21.0715355 L30.0488774,6.98229677 C30.0488774,6.67700645 29.8190968,6.40531613 29.4715355,6.40531613 L27.6257032,6.40531613 C27.2810323,6.40531613 27.0472774,6.67700645 27.0472774,6.98229677 L27.0472774,16.8755097 C26.048671,17.9532387 24.2418581,18.8701935 22.8913548,18.8701935 C21.0079484,18.8701935 20.0826839,17.8358194 20.0826839,15.1882839 L20.0826839,6.98229677 C20.0826839,6.67700645 19.8091871,6.40531613 19.5031742,6.40531613 L17.6605935,6.40531613 C17.3506065,6.40531613 17.0785548,6.67700645 17.0785548,6.98229677 L17.0785548,16.1460645 C17.0785548,19.4934194 18.8904258,21.8349419 22.3934968,21.8349419 C24.5500387,21.8349419 26.4356129,20.6806194 27.3576258,19.8749419 L27.6701419,21.2608516 Z M75.1003355,21.2608516 C75.1744,21.4548645 75.3709419,21.6069677 75.6046968,21.6069677 L76.9490581,21.6069677 C77.2211097,21.6069677 77.4826839,21.3753806 77.4826839,21.0603355 L77.4826839,6.98229677 C77.4826839,6.67700645 77.2565161,6.40531613 76.9118452,6.40531613 L75.0660129,6.40531613 C74.7148387,6.40531613 74.4875871,6.67700645 74.4875871,6.98229677 L74.4875871,16.8755097 C73.4889806,17.9532387 71.6763871,18.8701935 70.3251613,18.8701935 C68.4460903,18.8701935 67.5190194,17.8358194 67.5190194,15.1882839 L67.5190194,6.98229677 C67.5190194,6.67700645 67.2484129,6.40531613 66.9470968,6.40531613 L65.0958452,6.40531613 C64.7869419,6.40531613 64.5224774,6.67700645 64.5224774,6.98229677 L64.5224774,16.1460645 C64.5224774,19.4934194 66.3303742,21.8349419 69.8287484,21.8349419 C71.979871,21.8349419 73.8770065,20.6806194 74.7950452,19.8749419 L75.1003355,21.2608516 Z M34.8153806,16.2595097 C34.6202839,18.2939355 34.0888258,18.7997419 32.3539097,18.9919484 C32.079329,19.0269935 31.8163097,19.2965161 31.8163097,19.6028903 L31.8163097,21.1441548 C31.8163097,21.4548645 32.079329,21.7225806 32.3539097,21.7225806 C35.7370323,21.7225806 37.4325677,20.1094194 37.7833806,16.1102968 L38.1269677,12.524129 C38.3567484,10.0268903 38.8571355,9.25950968 41.1245935,9.25950968 L43.6218323,9.25950968 L43.6218323,21.0260129 C43.6218323,21.3381677 43.8974968,21.6069677 44.2049548,21.6069677 L46.0497032,21.6069677 C46.3177806,21.6069677 46.6270452,21.3381677 46.6270452,21.0260129 L46.6270452,6.98229677 C46.6270452,6.67700645 46.3181419,6.40531613 46.0497032,6.40531613 L40.9688774,6.40531613 C36.7761032,6.40531613 35.5506065,8.83029677 35.2005161,12.2571355 L34.8153806,16.2595097 Z" id="Shape"/>
                    <path d="M99.4849032,5.61734194 C100.859974,5.61734194 102.075355,6.04944516 102.075355,8.16877419 C102.075355,10.267871 100.859974,10.7194839 99.4849032,10.7194839 C98.1112774,10.7194839 96.8933677,10.2675097 96.8933677,8.16877419 C96.893729,6.04980645 98.1116387,5.61734194 99.4849032,5.61734194 Z M99.4849032,6.04980645 C98.248929,6.04980645 97.3655742,6.3428129 97.3655742,8.16913548 C97.3655742,9.9940129 98.248929,10.2870194 99.4849032,10.2870194 C100.721961,10.2870194 101.604232,9.9940129 101.604232,8.16913548 C101.604594,6.34245161 100.721961,6.04980645 99.4849032,6.04980645 Z M98.9155097,9.49326452 L98.9155097,8.44407742 L99.6622968,8.44407742 L100.210013,9.50301935 C100.233135,9.54637419 100.289497,9.58033548 100.338994,9.58033548 L100.672103,9.58033548 C100.720877,9.58033548 100.74111,9.54781935 100.718348,9.50482581 L100.095123,8.38374194 C100.427148,8.26632258 100.544568,7.99246452 100.544568,7.61852903 C100.544568,7.08923871 100.329961,6.75396129 99.6023226,6.75396129 L98.5542194,6.75396129 C98.5043613,6.75396129 98.4635355,6.79550968 98.4635355,6.84283871 L98.4635355,9.49326452 C98.4635355,9.54167742 98.5043613,9.58033548 98.5542194,9.58033548 L98.8288,9.58033548 C98.8775742,9.58033548 98.9155097,9.54203871 98.9155097,9.49326452 Z M98.9155097,7.18714839 L99.6622968,7.18714839 C100.054297,7.18714839 100.112826,7.38369032 100.112826,7.61852903 C100.112826,7.79447742 100.054297,7.99246452 99.6622968,7.99246452 L98.9155097,7.99246452 L98.9155097,7.18714839 Z" id="Shape"/>
                </g>
                <g id="Shape">
                    <mask id="mask-3" fill="white">
                        <use xlink:href="#path-2"/>
                    </mask>
                    <use id="Mask" fill="url(#linearGradient-1)" xlink:href="#path-2"/>
                    <path d="M6.87826087,9.49565217 C20.4521739,8.33913043 35.3652174,8.27826087 49,9.49565217 C43.826087,3.65217391 36.3391304,0 27.9391304,0 C19.5391304,0.0608695652 12.0521739,3.71304348 6.87826087,9.49565217 Z" fill="#000000" fill-rule="nonzero" mask="url(#mask-3)"/>
                    <path d="M49.426087,46.2608696 C36.2173913,47.2956522 20.5130435,47.3565217 6.75652174,46.2608696 C11.9304348,52.2869565 19.5391304,56.0608696 28.1217391,56.0608696 C36.6434783,56.0608696 44.3130435,52.2869565 49.426087,46.2608696 Z" fill="#000000" fill-rule="nonzero" mask="url(#mask-3)"/>
                    <path d="M0.909090909,20.9472558 C19.1515152,20.642908 36.9090909,20.5820384 55.0909091,20.9472558 C55.6969697,23.2602993 56,25.6342123 56,28.0689949 C56,30.1994297 55.7575758,32.3298645 55.3333333,34.2776906 C36.9090909,34.8255167 18.7272727,34.7037775 0.666666667,34.2776906 C0.242424242,32.2689949 0,30.1994297 0,28.0689949 C-8.61263922e-15,25.5733427 0.303030303,23.1994297 0.909090909,20.9472558 Z" fill="#000000" fill-rule="nonzero" mask="url(#mask-3)"/>
                    <path d="M69.4521739,13.3913043 C69.4521739,28.7913043 56.9130435,41.2695652 41.5130435,41.2695652 C26.0521739,41.2695652 13.573913,28.7913043 13.573913,13.3913043 C13.573913,-2.00869565 26.1130435,-14.4869565 41.5130435,-14.4869565 C56.973913,-14.4869565 69.4521739,-2.00869565 69.4521739,13.3913043 Z" fill="url(#radialGradient-4)" mask="url(#mask-3)"/>
                </g>
            </g>
        </g>
    </g>
</svg>